<svg id="Capa_1" enable-background="new 0 0 512 512" height="512" viewBox="0 0 512 512" width="512" xmlns="http://www.w3.org/2000/svg"><g><g><g><path d="m307.375 339.555 45.13-24.531 78.521 144.456c2.362 4.345-.707 9.651-5.651 9.771l-43.496 1.053c-2.128.052-4.101 1.124-5.302 2.882l-24.539 35.929c-2.789 4.084-8.911 3.774-11.273-.572l-78.521-144.456z" fill="#a2aee6"/></g><g><path d="m204.624 339.555-45.13-24.531-78.521 144.456c-2.362 4.345.707 9.651 5.651 9.771l43.496 1.053c2.128.052 4.101 1.124 5.302 2.882l24.539 35.929c2.789 4.084 8.911 3.774 11.273-.572l78.521-144.456z" fill="#a2aee6"/></g></g><g><g><path d="m425.376 469.253-15.324.37-77.997-143.477 20.453-11.121 78.522 144.453c2.362 4.348-.711 9.652-5.654 9.775z" fill="#8795de"/></g><g><path d="m249.751 364.081-78.521 144.463c-2.354 4.347-8.479 4.656-11.264.565l-9.445-13.834c.493-.463.915-1.017 1.264-1.655l76.692-141.102z" fill="#8795de"/></g></g><circle cx="256" cy="201.298" fill="#fea613" r="201.298"/><path d="m457.298 201.293c0 111.174-90.125 201.299-201.299 201.299-28.325 0-55.284-5.848-79.734-16.413 18.911 5.889 39.014 9.055 59.857 9.055 111.174 0 201.299-90.125 201.299-201.299 0-82.838-50.042-153.99-121.544-184.875 81.934 25.488 141.421 101.913 141.421 192.233z" fill="#fb8801"/><circle cx="256" cy="201.298" fill="#fee45a" r="158.413"/><path d="m414.409 201.293c0 87.494-70.916 158.42-158.41 158.42-29.446 0-57.021-8.037-80.639-22.035 18.705 7.78 39.23 12.076 60.762 12.076 87.494 0 158.42-70.926 158.42-158.41 0-58.049-31.224-108.81-77.792-136.395 57.34 23.834 97.659 80.382 97.659 146.344z" fill="#fed402"/><g fill="#fea613"><path d="m238.305 174.796c4.247 0 7.691-3.443 7.691-7.691s-3.443-7.691-7.691-7.691h-28.919c-4.247 0-7.691 3.443-7.691 7.691v68.634c0 4.248 3.443 7.691 7.691 7.691h28.919c4.247 0 7.691-3.443 7.691-7.691s-3.443-7.691-7.691-7.691h-21.229v-18.935h19.096c4.247 0 7.691-3.443 7.691-7.691s-3.443-7.691-7.691-7.691h-19.096v-18.935z"/><path d="m175.662 196.289c2.703-3.842 4.297-8.517 4.297-13.561 0-13.029-10.6-23.629-23.629-23.629h-20.12c-4.247 0-7.691 3.443-7.691 7.691v69.266c0 2.046.815 4.007 2.265 5.451 1.442 1.435 3.393 2.24 5.426 2.24h.034s18.501-.082 23.6-.082c14.521 0 26.335-11.814 26.335-26.335 0-8.59-4.135-16.231-10.517-21.041zm-31.762-21.809h12.429c4.548 0 8.248 3.7 8.248 8.248s-3.7 8.246-8.248 8.246c-1.482 0-12.429.019-12.429.019zm15.943 53.803c-2.919 0-10.216.027-15.943.05v-21.938c1.666-.007 15.943-.02 15.943-.02 6.04 0 10.954 4.914 10.954 10.954s-4.914 10.954-10.954 10.954z"/><path d="m299.884 194.752c-7.487-2.761-14.406-5.686-17.866-7.185-1.063-.461-1.881-1.067-2.362-1.753-1.065-1.52-1.308-3.566-.648-5.473.829-2.394 2.92-4.206 5.887-5.099 10.279-3.095 19.699 4.379 19.954 4.584 3.25 2.702 8.077 2.273 10.801-.967 2.733-3.252 2.313-8.103-.938-10.836-.638-.535-15.824-13.058-34.253-7.51-7.708 2.322-13.534 7.715-15.985 14.795-2.271 6.557-1.304 13.785 2.589 19.337 2.115 3.014 5.173 5.448 8.843 7.037 3.604 1.561 10.821 4.612 18.656 7.502 3.266 1.205 10.747 4.64 9.7 10.509-.761 4.263-5.851 8.673-13.052 8.673-7.153 0-14.047-2.894-18.439-7.741-2.853-3.148-7.717-3.385-10.863-.535-3.147 2.852-3.387 7.716-.535 10.863 7.259 8.011 18.414 12.794 29.837 12.794 14.128 0 25.985-8.98 28.194-21.351 1.655-9.274-2.603-21.404-19.52-27.644z"/><path d="m329.847 166.79c0 4.248 3.443 7.691 7.691 7.691h11.359v61.575c0 4.248 3.443 7.691 7.691 7.691s7.691-3.443 7.691-7.691v-61.576h11.512c4.248 0 7.691-3.443 7.691-7.691s-3.443-7.691-7.691-7.691h-38.253c-4.248.001-7.691 3.444-7.691 7.692z"/></g></g></svg>