<svg width="24" height="25" viewBox="0 0 24 25" fill="none" xmlns="http://www.w3.org/2000/svg">
<path fill-rule="evenodd" clip-rule="evenodd" d="M12 2.57645C9.17301 -0.292584 4.8255 -0.188505 2.10883 2.88868C-0.702944 6.07359 -0.702944 11.2374 2.10883 14.4223L10.3029 23.7038C11.2402 24.7654 12.7598 24.7654 13.6971 23.7038C13.6971 23.7038 19.0794 17.6072 21.8912 14.4223C24.7029 11.2374 24.7029 6.07359 21.8912 2.88868C19.1745 -0.188505 14.827 -0.292584 12 2.57645ZM10.5941 4.81095C8.7196 2.68767 5.6804 2.68767 3.80589 4.81095C1.93137 6.93422 1.93137 10.3767 3.80589 12.5L12 21.7815L20.1941 12.5C22.0686 10.3767 22.0686 6.93422 20.1941 4.81095C18.3196 2.68767 15.2804 2.68767 13.4059 4.81095L12.8485 5.44227C12.3799 5.97309 11.6201 5.97309 11.1515 5.44227L10.5941 4.81095Z" fill="#2F80ED"/>
</svg>
