<svg width="20" height="20" viewBox="0 0 20 20" fill="none" xmlns="http://www.w3.org/2000/svg">
<path fill-rule="evenodd" clip-rule="evenodd" d="M10 1.73037C7.64418 -0.660487 4.02125 -0.573754 1.75736 1.99057C-0.585787 4.64466 -0.585787 8.94779 1.75736 11.6019L8.58579 19.3365C9.36684 20.2212 10.6332 20.2212 11.4142 19.3365C11.4142 19.3365 15.8995 14.256 18.2426 11.6019C20.5858 8.94779 20.5858 4.64466 18.2426 1.99057C15.9787 -0.573754 12.3558 -0.660487 10 1.73037ZM8.82843 3.59246C7.26633 1.82306 4.73367 1.82306 3.17157 3.59246C1.60948 5.36185 1.60948 8.23061 3.17157 10L10 17.7346L16.8284 10C18.3905 8.23061 18.3905 5.36185 16.8284 3.59246C15.2663 1.82306 12.7337 1.82306 11.1716 3.59246L10.7071 4.11856C10.3166 4.56091 9.68342 4.56091 9.29289 4.11856L8.82843 3.59246Z" fill="white"/>
</svg>
