<svg width="198" height="44" viewBox="0 0 198 44" fill="none" xmlns="http://www.w3.org/2000/svg">
<path d="M22 18.5625C25.797 18.5625 28.875 15.4845 28.875 11.6875C28.875 7.89054 25.797 4.8125 22 4.8125C18.203 4.8125 15.125 7.89054 15.125 11.6875C15.125 15.4845 18.203 18.5625 22 18.5625Z" fill="#EB5757" stroke="black" stroke-width="2" stroke-linecap="round" stroke-linejoin="round"/>
<path d="M32.3125 36.4375C36.1095 36.4375 39.1875 33.3595 39.1875 29.5625C39.1875 25.7655 36.1095 22.6875 32.3125 22.6875C28.5155 22.6875 25.4375 25.7655 25.4375 29.5625C25.4375 33.3595 28.5155 36.4375 32.3125 36.4375Z" fill="#F2C94C" stroke="black" stroke-width="2" stroke-linecap="round" stroke-linejoin="round"/>
<path d="M11.6875 36.4375C15.4845 36.4375 18.5625 33.3595 18.5625 29.5625C18.5625 25.7655 15.4845 22.6875 11.6875 22.6875C7.89054 22.6875 4.8125 25.7655 4.8125 29.5625C4.8125 33.3595 7.89054 36.4375 11.6875 36.4375Z" fill="#2D9CDB" stroke="black" stroke-width="2" stroke-linecap="round" stroke-linejoin="round"/>
<path d="M52.3867 30.5L61.6914 12.7344C62.0117 12.1016 62.6016 11.6797 63.4609 11.4688C63.7109 11.4062 64.0195 11.375 64.3867 11.375C64.7539 11.375 65.1523 11.4805 65.582 11.6914C66.0195 11.8945 66.3633 12.2188 66.6133 12.6641L76.5977 30.5H67.0938L66.3555 28.6484H61.293L60.6602 30.5H52.3867ZM61.8672 24.9336H65.6523L63.8594 19.8711L61.8672 24.9336ZM86.7578 26.0586C87.5469 26.0586 88.6875 25.5 90.1797 24.3828V30.1133C87.6172 31.082 85.2539 31.2188 83.0898 30.5234C80.9258 29.8281 79.3906 28.5859 78.4844 26.7969C78.0312 25.8906 77.8047 24.8281 77.8047 23.6094C77.8047 21.1562 78.6484 19.168 80.3359 17.6445C82.0234 16.1211 84.2188 15.3594 86.9219 15.3594C88.0391 15.3594 89.0469 15.5273 89.9453 15.8633V20.375C89.7344 20.1953 89.4375 20.1055 89.0547 20.1055C88.6719 20.1055 88.2617 20.2266 87.8242 20.4688C87.3867 20.7109 86.9883 21.0352 86.6289 21.4414C85.8008 22.3789 85.3867 23.3438 85.3867 24.3359C85.3945 25.3203 85.6953 25.875 86.2891 26C86.4453 26.0312 86.6016 26.0508 86.7578 26.0586ZM94.5508 29.2109C93.9258 28.625 93.4258 27.8906 93.0508 27.0078C92.6836 26.1172 92.5 25.1602 92.5 24.1367C92.5 23.1133 92.6016 22.2266 92.8047 21.4766C93.2109 19.9844 93.9219 18.7305 94.9375 17.7148C95.4219 17.2148 95.9609 16.793 96.5547 16.4492C97.7734 15.7383 99.0586 15.3828 100.41 15.3828C101.77 15.3828 102.961 15.832 103.984 16.7305C104.312 17.0195 104.598 17.3516 104.84 17.7266L106.516 15.9336H110.359V30.5H106.516L104.84 28.0742C103.559 29.9648 101.617 30.9141 99.0156 30.9219C98.2969 30.9297 97.5273 30.7891 96.707 30.5C95.8945 30.2188 95.1758 29.7891 94.5508 29.2109ZM104.043 20.3516C103.762 20.1875 103.426 20.1055 103.035 20.1055C102.645 20.1055 102.23 20.2461 101.793 20.5273C101.363 20.8008 100.977 21.1484 100.633 21.5703C99.8672 22.5156 99.4844 23.4766 99.4844 24.4531C99.4844 25.1406 99.6953 25.625 100.117 25.9062C100.508 26.1641 101.102 26.1289 101.898 25.8008C102.703 25.4648 103.418 25.0312 104.043 24.5V20.3516ZM121.562 15.4062C122.492 15.4062 123.449 15.5586 124.434 15.8633V10.7773H131.254V30.5H126.906L125.23 28.0742C123.801 29.9648 121.922 30.9102 119.594 30.9102C117.727 30.9102 116.094 30.2773 114.695 29.0117C113.305 27.7383 112.609 26.1094 112.609 24.125C112.609 22.1406 113.016 20.5078 113.828 19.2266C115.438 16.6797 118.016 15.4062 121.562 15.4062ZM124.434 20.3516C124.168 20.1875 123.879 20.1055 123.566 20.1055C123.254 20.1055 122.953 20.168 122.664 20.293C122.07 20.5508 121.539 20.9688 121.07 21.5469C120.82 21.8281 120.609 22.1289 120.438 22.4492C120.062 23.1367 119.875 23.8203 119.875 24.5C119.875 25.1719 120.082 25.6406 120.496 25.9062C120.645 26 120.824 26.0508 121.035 26.0586C122.051 26.0586 123.184 25.5469 124.434 24.5234V20.3516ZM143.617 20.1055C143.617 19.418 143.297 19.0742 142.656 19.0742C141.922 19.1445 141.445 19.5234 141.227 20.2109C141.117 20.5391 141.039 20.9219 140.992 21.3594C140.953 21.7891 140.891 22.25 140.805 22.7422L143.371 22.168L143.594 20.375L143.617 20.1055ZM142.035 25.4375C142.035 25.4375 141.82 25.4375 141.391 25.4375C141.188 25.4375 140.992 25.4297 140.805 25.4141C140.805 26.3438 141.301 26.8516 142.293 26.9375C142.566 26.9609 142.832 26.9727 143.09 26.9727C143.754 26.9727 144.586 26.8203 145.586 26.5156C146.594 26.2109 147.496 25.7148 148.293 25.0273L149.02 28.6719C147.277 30.1797 144.645 30.9336 141.121 30.9336C139.098 30.9336 137.359 30.3438 135.906 29.1641C134.328 27.875 133.539 26.0898 133.539 23.8086C133.539 22.0898 133.984 20.5469 134.875 19.1797C135.703 17.9297 136.824 16.9805 138.238 16.332C139.652 15.6836 141.18 15.3594 142.82 15.3594C144.945 15.3594 146.551 15.8242 147.637 16.7539C148.73 17.6836 149.273 18.832 149.266 20.1992C149.266 21.5664 148.613 22.7812 147.309 23.8438C146.004 24.9062 144.246 25.4375 142.035 25.4375ZM167.266 17.9258C168.594 16.2305 170.281 15.3828 172.328 15.3828C172.891 15.3828 173.469 15.5 174.062 15.7344C174.664 15.9688 175.188 16.3086 175.633 16.7539C176.602 17.7227 177.086 18.9922 177.086 20.5625V30.5H170.289V22.9883C170.289 22.0273 170.137 21.2734 169.832 20.7266C169.527 20.1719 169.164 19.8945 168.742 19.8945C168.328 19.8867 168.055 20.1562 167.922 20.7031C167.883 20.8594 167.863 21.0352 167.863 21.2305V30.5H161.219V22.9883C161.219 22.0273 161.051 21.2734 160.715 20.7266C160.387 20.1719 160.027 19.8945 159.637 19.8945C159.012 19.8945 158.699 20.3984 158.699 21.4062V30.5H151.738V15.9336H155.582L157.258 18.207C157.828 17.3477 158.641 16.6641 159.695 16.1562C160.758 15.6406 161.84 15.3828 162.941 15.3828C164.371 15.3828 165.555 15.8672 166.492 16.8359C166.797 17.1484 167.055 17.5117 167.266 17.9258ZM180.754 30.1836C181.582 30.4102 182.621 30.5234 183.871 30.5234C184.66 30.5234 185.188 30.1875 185.453 29.5156C185.531 29.3125 185.57 29.1016 185.57 28.8828C185.57 28.6641 185.531 28.4336 185.453 28.1914L179.43 15.9336H186.414L188.934 21.5703L191.289 15.9336H197.43L191.957 29.5391C191.23 31.3125 190.43 32.6211 189.555 33.4648C188.484 34.4961 187.164 35.0117 185.594 35.0117C183.445 35.0117 181.832 34.7891 180.754 34.3438V30.1836Z" fill="black"/>
</svg>
