<svg width="24" height="29" viewBox="0 0 24 29" fill="none" xmlns="http://www.w3.org/2000/svg">
<path fill-rule="evenodd" clip-rule="evenodd" d="M9.52819 2.24737C9.9244 1.22262 10.8818 0.5 12 0.5C13.1182 0.5 14.0756 1.22262 14.4718 2.24737C18.4269 3.385 21.3333 7.18611 21.3333 11.7V18.2761L23.7761 22.1234C24.0488 22.553 24.0743 23.1054 23.8422 23.5606C23.6102 24.0158 23.1584 24.3 22.6667 24.3H16.6194C16.2959 26.6746 14.351 28.5 12 28.5C9.64902 28.5 7.70408 26.6746 7.38059 24.3H1.33334C0.841608 24.3 0.389794 24.0158 0.157769 23.5606C-0.0742561 23.1054 -0.048826 22.553 0.223935 22.1234L2.66667 18.2761V11.7C2.66667 7.18611 5.57311 3.385 9.52819 2.24737ZM10.1138 24.3C10.3884 25.1156 11.1292 25.7 12 25.7C12.8708 25.7 13.6116 25.1156 13.8862 24.3H10.1138ZM12 4.7C8.3181 4.7 5.33333 7.83401 5.33333 11.7V18.7C5.33333 18.9764 5.25542 19.2466 5.1094 19.4766L3.82469 21.5H20.1753L18.8906 19.4766C18.7446 19.2466 18.6667 18.9764 18.6667 18.7V11.7C18.6667 7.83401 15.6819 4.7 12 4.7Z" fill="#2F80ED"/>
</svg>
