<svg width="14" height="15" viewBox="0 0 14 15" fill="none" xmlns="http://www.w3.org/2000/svg">
<path fill-rule="evenodd" clip-rule="evenodd" d="M7 0.815033C7.26514 0.815033 7.50752 0.964834 7.6261 1.20198L9.43132 4.81244L13.4007 5.38981C13.6644 5.42816 13.8834 5.61284 13.9657 5.86621C14.048 6.11959 13.9794 6.39773 13.7886 6.58372L10.8997 9.40047L11.5495 13.372C11.5925 13.6344 11.483 13.8986 11.2669 14.0537C11.0509 14.2087 10.7656 14.228 10.5306 14.1033L7 12.2299L3.46936 14.1033C3.23442 14.228 2.94913 14.2087 2.73307 14.0537C2.51701 13.8986 2.4075 13.6344 2.45045 13.372L3.10033 9.40047L0.21135 6.58372C0.0205963 6.39773 -0.0480458 6.11959 0.0342786 5.86621C0.116603 5.61284 0.33562 5.42816 0.599261 5.38981L4.56867 4.81244L6.3739 1.20198C6.49248 0.964834 6.73486 0.815033 7 0.815033ZM7 3.08027L5.65735 5.76557C5.55491 5.97046 5.3587 6.11226 5.13201 6.14523L2.20389 6.57114L4.33868 8.65256C4.50226 8.81205 4.57771 9.04133 4.54082 9.2668L4.06001 12.2051L6.6719 10.8192C6.87708 10.7103 7.12291 10.7103 7.3281 10.8192L9.93999 12.2051L9.45918 9.2668C9.42229 9.04133 9.49774 8.81205 9.66132 8.65256L11.7961 6.57114L8.86799 6.14523C8.6413 6.11226 8.44509 5.97046 8.34265 5.76557L7 3.08027Z" fill="#2F80ED"/>
</svg>
